<svg width="1114" height="403" viewBox="0 0 1114 403" fill="none" xmlns="http://www.w3.org/2000/svg">
<g filter="url(#filter0_i_302_5)">
<path d="M35.6 283.24H34.32V366.696C34.32 368.659 32.6133 369.64 29.2 369.64C25.7867 369.64 24.08 368.659 24.08 366.696V283.88C24.08 280.125 24.5067 277.608 25.36 276.328C26.2987 274.963 28.432 274.28 31.76 274.28H34.576C40.5493 274.28 44.56 274.963 46.608 276.328C48.656 277.693 50.3627 281.107 51.728 286.568L68.368 353.768C69.136 356.84 69.8613 358.76 70.544 359.528C71.2267 360.296 72.9333 360.68 75.664 360.68H76.944V277.224C76.944 275.261 78.6507 274.28 82.064 274.28C85.4773 274.28 87.184 275.261 87.184 277.224V360.04C87.184 363.795 86.7147 366.355 85.776 367.72C84.9227 369 82.832 369.64 79.504 369.64H76.688C70.7147 369.64 66.704 368.957 64.656 367.592C62.608 366.227 60.9013 362.813 59.536 357.352L42.896 290.152C42.128 287.08 41.4027 285.16 40.72 284.392C40.0373 283.624 38.3307 283.24 35.6 283.24ZM175.874 292.584V350.696C175.874 357.779 173.101 362.941 167.554 366.184C162.093 369.341 154.839 370.92 145.794 370.92C126.338 370.92 116.61 364.179 116.61 350.696V292.584C116.61 285.501 119.341 280.381 124.802 277.224C130.349 273.981 137.645 272.36 146.69 272.36C166.146 272.36 175.874 279.101 175.874 292.584ZM126.85 291.304V351.976C126.85 358.632 133.293 361.96 146.178 361.96C159.149 361.96 165.634 358.632 165.634 351.976V291.304C165.634 284.648 159.149 281.32 146.178 281.32C133.293 281.32 126.85 284.648 126.85 291.304ZM249.741 351.976V337.512C249.741 334.696 248.632 332.648 246.413 331.368C244.194 330.088 240.354 328.808 234.893 327.528L223.501 324.968C218.296 323.773 214.37 322.451 211.725 321C206.093 318.013 203.277 311.827 203.277 302.44V292.584C203.277 285.501 205.794 280.381 210.829 277.224C215.949 273.981 222.69 272.36 231.053 272.36C239.416 272.36 246.114 273.981 251.149 277.224C256.184 280.381 258.701 285.501 258.701 292.584V298.216C258.701 300.179 256.994 301.16 253.581 301.16C250.168 301.16 248.461 300.179 248.461 298.216V291.304C248.461 284.648 242.616 281.32 230.925 281.32C219.32 281.32 213.517 284.648 213.517 291.304V302.184C213.517 306.877 214.2 310.12 215.565 311.912C217.016 313.619 219.661 314.899 223.501 315.752L234.893 318.312C243.085 320.104 247.736 321.341 248.845 322.024C250.04 322.621 251.405 323.304 252.941 324.072C254.477 324.84 255.501 325.651 256.013 326.504C256.61 327.272 257.293 328.253 258.061 329.448C259.341 331.411 259.981 334.44 259.981 338.536V350.696C259.981 357.693 257.165 362.813 251.533 366.056C245.986 369.299 238.946 370.92 230.413 370.92C221.965 370.92 215.01 369.299 209.549 366.056C204.173 362.813 201.485 357.693 201.485 350.696V345.064C201.485 343.101 203.192 342.12 206.605 342.12C210.018 342.12 211.725 343.101 211.725 345.064V351.976C211.725 355.475 213.474 358.035 216.973 359.656C220.557 361.192 225.037 361.96 230.413 361.96C235.874 361.96 240.44 361.149 244.109 359.528C247.864 357.907 249.741 355.389 249.741 351.976ZM295.845 291.304V351.976C295.845 358.632 302.074 361.96 314.533 361.96C327.077 361.96 333.349 358.632 333.349 351.976V342.76C333.349 340.797 335.056 339.816 338.469 339.816C341.882 339.816 343.589 340.797 343.589 342.76V350.696C343.589 364.179 334.074 370.92 315.045 370.92C306.17 370.92 299.045 369.341 293.669 366.184C288.293 362.941 285.605 357.779 285.605 350.696V292.584C285.605 285.501 288.293 280.381 293.669 277.224C299.045 273.981 306.17 272.36 315.045 272.36C334.074 272.36 343.589 279.101 343.589 292.584V300.52C343.589 302.483 341.882 303.464 338.469 303.464C335.056 303.464 333.349 302.483 333.349 300.52V291.304C333.349 284.648 327.077 281.32 314.533 281.32C302.074 281.32 295.845 284.648 295.845 291.304ZM428.429 292.584V350.696C428.429 357.779 425.656 362.941 420.109 366.184C414.648 369.341 407.394 370.92 398.349 370.92C378.893 370.92 369.165 364.179 369.165 350.696V292.584C369.165 285.501 371.896 280.381 377.357 277.224C382.904 273.981 390.2 272.36 399.245 272.36C418.701 272.36 428.429 279.101 428.429 292.584ZM379.405 291.304V351.976C379.405 358.632 385.848 361.96 398.733 361.96C411.704 361.96 418.189 358.632 418.189 351.976V291.304C418.189 284.648 411.704 281.32 398.733 281.32C385.848 281.32 379.405 284.648 379.405 291.304ZM469.4 283.24H468.12V366.696C468.12 368.659 466.413 369.64 463 369.64C459.587 369.64 457.88 368.659 457.88 366.696V283.88C457.88 280.125 458.307 277.608 459.16 276.328C460.099 274.963 462.232 274.28 465.56 274.28H468.376C474.349 274.28 478.36 274.963 480.408 276.328C482.456 277.693 484.163 281.107 485.528 286.568L502.168 353.768C502.936 356.84 503.661 358.76 504.344 359.528C505.027 360.296 506.733 360.68 509.464 360.68H510.744V277.224C510.744 275.261 512.451 274.28 515.864 274.28C519.277 274.28 520.984 275.261 520.984 277.224V360.04C520.984 363.795 520.515 366.355 519.576 367.72C518.723 369 516.632 369.64 513.304 369.64H510.488C504.515 369.64 500.504 368.957 498.456 367.592C496.408 366.227 494.701 362.813 493.336 357.352L476.696 290.152C475.928 287.08 475.203 285.16 474.52 284.392C473.837 283.624 472.131 283.24 469.4 283.24ZM560.65 335.976V351.976C560.65 358.632 566.666 361.96 578.698 361.96C590.815 361.96 596.874 358.632 596.874 351.976V342.76C596.874 340.797 598.581 339.816 601.994 339.816C605.407 339.816 607.114 340.797 607.114 342.76V350.696C607.114 357.779 604.554 362.941 599.434 366.184C594.314 369.341 587.445 370.92 578.826 370.92C570.293 370.92 563.423 369.341 558.218 366.184C553.013 362.941 550.41 357.779 550.41 350.696V335.976C550.41 327.187 554.165 321.896 561.674 320.104C555.018 318.056 551.69 312.851 551.69 304.488V292.584C551.69 285.501 554.293 280.381 559.498 277.224C564.703 273.981 571.317 272.36 579.338 272.36C587.445 272.36 593.845 273.981 598.538 277.224C603.231 280.467 605.578 285.587 605.578 292.584V294.504C605.578 296.467 603.871 297.448 600.458 297.448C597.045 297.448 595.338 296.467 595.338 294.504V291.304C595.338 284.648 589.749 281.32 578.57 281.32C567.477 281.32 561.93 284.648 561.93 291.304V304.488C561.93 311.997 566.538 315.752 575.754 315.752H585.354C587.061 315.752 587.914 317.245 587.914 320.232C587.914 323.219 587.061 324.712 585.354 324.712H574.474C565.258 324.712 560.65 328.467 560.65 335.976ZM640.335 291.304V351.976C640.335 358.632 646.564 361.96 659.023 361.96C671.567 361.96 677.839 358.632 677.839 351.976V342.76C677.839 340.797 679.546 339.816 682.959 339.816C686.372 339.816 688.079 340.797 688.079 342.76V350.696C688.079 364.179 678.564 370.92 659.535 370.92C650.66 370.92 643.535 369.341 638.159 366.184C632.783 362.941 630.095 357.779 630.095 350.696V292.584C630.095 285.501 632.783 280.381 638.159 277.224C643.535 273.981 650.66 272.36 659.535 272.36C678.564 272.36 688.079 279.101 688.079 292.584V300.52C688.079 302.483 686.372 303.464 682.959 303.464C679.546 303.464 677.839 302.483 677.839 300.52V291.304C677.839 284.648 671.567 281.32 659.023 281.32C646.564 281.32 640.335 284.648 640.335 291.304ZM705.975 274.28H759.735C761.442 274.28 762.295 275.773 762.295 278.76C762.295 281.747 761.442 283.24 759.735 283.24H737.975V366.696C737.975 368.659 736.268 369.64 732.855 369.64C729.442 369.64 727.735 368.659 727.735 366.696V283.24H705.975C704.268 283.24 703.415 281.747 703.415 278.76C703.415 275.773 704.268 274.28 705.975 274.28ZM840.759 292.584V366.696C840.759 368.659 839.052 369.64 835.639 369.64C832.226 369.64 830.519 368.659 830.519 366.696V332.008H791.735V366.696C791.735 368.659 790.028 369.64 786.615 369.64C783.202 369.64 781.495 368.659 781.495 366.696V292.584C781.495 287.805 782.903 283.88 785.719 280.808C788.535 277.651 792.119 275.475 796.471 274.28C800.823 273 805.943 272.36 811.831 272.36C831.116 272.36 840.759 279.101 840.759 292.584ZM791.735 291.304V323.048H830.519V291.304C830.519 284.648 824.034 281.32 811.063 281.32C798.178 281.32 791.735 284.648 791.735 291.304ZM881.67 360.04H905.734C911.195 360.04 914.993 359.315 917.126 357.864C919.345 356.413 920.454 353.811 920.454 350.056V293.224C920.454 289.469 919.345 286.867 917.126 285.416C914.993 283.965 911.195 283.24 905.734 283.24H881.67V360.04ZM871.43 359.4V283.88C871.43 280.125 871.857 277.608 872.71 276.328C873.649 274.963 875.782 274.28 879.11 274.28H905.734C914.267 274.28 920.539 275.816 924.55 278.888C928.646 281.96 930.694 287.165 930.694 294.504V348.776C930.694 356.115 928.646 361.32 924.55 364.392C920.539 367.464 914.267 369 905.734 369H879.11C875.782 369 873.649 368.36 872.71 367.08C871.857 365.715 871.43 363.155 871.43 359.4ZM1019.35 292.584V350.696C1019.35 357.779 1016.58 362.941 1011.03 366.184C1005.57 369.341 998.314 370.92 989.269 370.92C969.813 370.92 960.085 364.179 960.085 350.696V292.584C960.085 285.501 962.816 280.381 968.277 277.224C973.824 273.981 981.12 272.36 990.165 272.36C1009.62 272.36 1019.35 279.101 1019.35 292.584ZM970.325 291.304V351.976C970.325 358.632 976.768 361.96 989.653 361.96C1002.62 361.96 1009.11 358.632 1009.11 351.976V291.304C1009.11 284.648 1002.62 281.32 989.653 281.32C976.768 281.32 970.325 284.648 970.325 291.304ZM1093.22 351.976V337.512C1093.22 334.696 1092.11 332.648 1089.89 331.368C1087.67 330.088 1083.83 328.808 1078.37 327.528L1066.98 324.968C1061.77 323.773 1057.85 322.451 1055.2 321C1049.57 318.013 1046.75 311.827 1046.75 302.44V292.584C1046.75 285.501 1049.27 280.381 1054.3 277.224C1059.42 273.981 1066.17 272.36 1074.53 272.36C1082.89 272.36 1089.59 273.981 1094.62 277.224C1099.66 280.381 1102.18 285.501 1102.18 292.584V298.216C1102.18 300.179 1100.47 301.16 1097.06 301.16C1093.64 301.16 1091.94 300.179 1091.94 298.216V291.304C1091.94 284.648 1086.09 281.32 1074.4 281.32C1062.79 281.32 1056.99 284.648 1056.99 291.304V302.184C1056.99 306.877 1057.67 310.12 1059.04 311.912C1060.49 313.619 1063.14 314.899 1066.98 315.752L1078.37 318.312C1086.56 320.104 1091.21 321.341 1092.32 322.024C1093.51 322.621 1094.88 323.304 1096.42 324.072C1097.95 324.84 1098.98 325.651 1099.49 326.504C1100.09 327.272 1100.77 328.253 1101.54 329.448C1102.82 331.411 1103.46 334.44 1103.46 338.536V350.696C1103.46 357.693 1100.64 362.813 1095.01 366.056C1089.46 369.299 1082.42 370.92 1073.89 370.92C1065.44 370.92 1058.49 369.299 1053.02 366.056C1047.65 362.813 1044.96 357.693 1044.96 350.696V345.064C1044.96 343.101 1046.67 342.12 1050.08 342.12C1053.49 342.12 1055.2 343.101 1055.2 345.064V351.976C1055.2 355.475 1056.95 358.035 1060.45 359.656C1064.03 361.192 1068.51 361.96 1073.89 361.96C1079.35 361.96 1083.91 361.149 1087.58 359.528C1091.34 357.907 1093.22 355.389 1093.22 351.976Z" fill="#67982F"/>
</g>
<path d="M555.377 0.0962639C541.137 1.38406 529.668 4.40372 518.454 9.82133L514.617 11.6864L512.997 10.221C510.694 8.13388 507.753 7.20134 504.256 7.46778C499.438 7.82303 495.772 10.443 493.555 15.0169C492.148 17.9922 491.892 21.5447 492.83 24.8752L493.341 26.5627L488.14 32.0247C483.45 36.9538 482.896 37.6643 482.896 39.0854C482.896 40.1955 483.194 40.8616 484.004 41.5277C486.093 43.2152 486.775 42.8599 492.233 37.1315L497.307 31.8027L499.609 32.9128C502.721 34.4227 507.326 34.4671 510.396 32.9572C512.57 31.9359 515.001 29.7599 516.195 27.8505L516.834 26.7847L521.098 28.2501C529.838 31.2698 539.986 35.8881 546.296 39.7071L549.366 41.5721L549.11 43.9257C548.939 45.4799 549.11 47.1674 549.579 48.766L550.261 51.2528L543.098 58.7575C539.176 62.8429 534.102 68.6158 531.842 71.5467L527.792 76.8755L524.466 76.7422C521.481 76.609 520.927 76.6978 518.454 77.9856C516.877 78.785 515.214 80.0283 514.532 80.9609C513.892 81.8046 513.082 82.8704 512.741 83.3144C512.187 84.0249 510.95 84.2026 503.574 84.6466C493.896 85.2239 487.543 85.9344 478.461 87.5775C472.322 88.6877 472.109 88.6877 471.682 87.8883C471.085 86.8226 468.826 84.469 467.802 83.8917C466.992 83.4477 467.035 83.1812 468.996 76.9643C470.744 71.3246 474.667 62.3545 478.419 55.2938C479.74 52.8514 479.399 51.3416 477.395 50.2758C474.837 48.8548 473.558 50.2314 469.081 59.3348C466.353 64.8857 463.283 72.8345 462.004 77.808L461.023 81.4494L458.635 81.9378C451.814 83.3588 447.422 89.3538 448.062 96.4144C448.531 101.477 451.473 105.695 455.821 107.605L457.612 108.36L457.868 114.843C458.891 141.443 471 169.241 489.632 187.759C493 191.134 493.086 191.223 492.617 192.599C491.934 194.642 492.403 199.571 493.512 201.792C495.431 205.699 499.396 208.675 503.446 209.252C506.388 209.696 508.946 209.119 511.547 207.476L513.892 206.01L516.408 207.342C525.404 212.094 538.11 215.957 549.621 217.467C555.122 218.178 568.85 218.178 574.351 217.467C585.862 215.957 598.866 211.961 608.246 206.987L610.165 205.966L611.615 207.254C614.812 210.007 620.355 210.717 624.278 208.808C629.01 206.543 631.739 202.546 632.038 197.529C632.166 196.019 631.995 193.887 631.697 192.866L631.228 190.956L635.619 186.294C651.864 169.108 661.67 148.726 665.209 124.613C666.147 118.307 666.275 101.61 665.465 95.5263C663.461 81.0053 659.368 67.5501 653.654 57.0257C651.949 53.8284 651.778 53.3399 652.333 52.7182C654.592 50.0982 655.402 44.2365 654.038 40.1067C653.143 37.3535 650.115 33.9342 647.387 32.5132C644.914 31.2254 640.991 30.9589 638.049 31.8471L636.429 32.3799L633.061 29.1827L629.65 25.9854L629.863 22.2996C630.034 19.5464 629.906 18.0366 629.394 16.3491C627.902 11.7752 623.254 7.95625 618.479 7.51218C615.111 7.20134 613.533 7.55659 610.591 9.37727L608.119 10.9759L603.386 8.88879C593.963 4.75897 585.308 2.22779 575.843 0.895585C571.323 0.273891 558.874 -0.214583 555.377 0.0962639ZM575.715 7.601C584.541 8.9332 593.153 11.4644 600.87 15.0169L604.836 16.7932L604.58 18.6583C604.409 19.6352 604.239 20.5234 604.196 20.6122C604.111 20.701 601.553 21.6335 598.483 22.7437C589.785 25.8078 580.703 30.1152 573.029 34.7335L571.323 35.7993L569.533 34.4227C565.056 31.0033 558.746 31.0033 554.226 34.4227L552.521 35.7104L550.645 34.6003C543.141 30.0708 529.54 23.8983 521.609 21.4115C517.985 20.2569 517.857 20.1681 517.857 18.9247C517.857 17.7257 518.156 17.4593 520.757 16.0827C529.71 11.42 543.524 7.68981 555.377 6.75727C559.726 6.44642 571.025 6.89049 575.715 7.601ZM508.051 14.8393C512.528 17.1484 512.656 24.0315 508.307 26.7403C506.303 27.9837 503.318 27.8061 501.485 26.2962C499.311 24.6088 498.543 22.7881 498.756 20.1681C498.884 18.9691 499.353 17.4149 499.822 16.7932C500.888 15.239 503.19 14.04 505.066 14.04C505.877 14.04 507.241 14.3952 508.051 14.8393ZM620.526 14.9281C624.619 17.5481 624.661 24.1203 620.611 26.6071C619.161 27.4952 616.347 27.6728 614.599 27.0067C612.084 25.9854 610.378 22.344 610.975 19.3244C611.785 14.9725 616.902 12.619 620.526 14.9281ZM607.863 29.7599C610.464 32.6908 613.278 34.0674 616.944 34.1118C619.801 34.1562 622.317 33.4901 624.15 32.1579C624.789 31.6694 625.472 31.3586 625.685 31.4474C625.898 31.5362 627.262 32.7796 628.712 34.2006L631.355 36.8206L630.332 39.041C629.565 40.8616 629.352 42.0162 629.394 44.8582C629.394 49.2545 630.631 52.0521 633.7 54.8497L635.704 56.7148L634.084 61.9104C630.417 73.5894 625.344 85.7124 619.46 96.7697C616.262 102.809 616.134 102.942 614.94 102.676C614.258 102.543 612.979 102.409 612.126 102.409C610.591 102.409 610.591 102.365 608.246 97.6578C600.828 82.5595 589.7 67.1948 578.06 55.8267L573.54 51.386L574.137 49.6986C574.436 48.766 574.734 46.5013 574.734 44.6806L574.777 41.3945L576.482 40.3287C579.765 38.3304 588.207 34.023 591.917 32.4244C595.541 30.8257 604.665 27.4508 605.39 27.4064C605.603 27.362 606.712 28.4277 607.863 29.7599ZM645.255 38.9077C650.798 42.4603 648.41 51.3416 641.887 51.3416C638.39 51.3416 635.534 48.322 635.534 44.6806C635.534 39.5738 641.077 36.2877 645.255 38.9077ZM565.184 39.4406C567.486 41.0837 568.254 42.5491 568.254 45.0803C568.254 49.0769 565.695 51.9189 562.029 51.9189C557.125 51.9189 554.056 46.9009 556.187 42.3715C557.85 38.7301 562.199 37.3535 565.184 39.4406ZM556.912 57.603C559.726 58.9352 563.734 58.8908 567.017 57.603L569.447 56.5816L573.455 60.4006C577.463 64.264 583.134 70.6585 587.568 76.4314C591.576 81.5826 598.909 93.3948 601.851 99.3897C604.494 104.763 604.58 105.074 603.898 105.829C603.173 106.539 602.96 106.495 599.208 104.674C585.01 97.791 570.684 92.5954 556.656 89.3093C551.156 88.0216 539.602 85.9788 537.811 85.9788C536.916 85.9788 536.489 85.6236 535.935 84.5134C535.551 83.7585 534.784 82.4707 534.272 81.7158L533.292 80.3836L537.172 75.2768C541.009 70.3033 553.629 56.6704 554.439 56.6704C554.653 56.6704 555.761 57.1145 556.912 57.603ZM648.836 61.7772C653.782 71.5023 657.278 83.1812 659.069 95.9704C659.922 102.01 659.794 117.863 658.856 124.169C658.003 129.631 655.658 139.667 654.507 142.731L653.782 144.596L650.499 141.487C644.615 135.848 635.406 127.899 630.204 123.991L625.131 120.172L625.258 116.486C625.344 113.2 625.216 112.578 624.15 110.403C623.468 109.07 622.658 107.561 622.359 107.028C621.847 106.228 622.103 105.518 625.258 99.6561C631.014 88.8653 636.259 76.3426 640.139 64.1307L642.057 58.047L643.805 57.8694C644.743 57.7806 645.852 57.7362 646.193 57.7362C646.534 57.7806 647.728 59.6013 648.836 61.7772ZM527.536 84.2026C529.113 85.1795 530.648 88.0216 530.648 89.8422C530.648 91.8849 528.9 94.9046 527.237 95.8371C524.21 97.4802 520.33 96.5032 518.625 93.6168C516.791 90.5083 517.687 86.2009 520.671 84.1582C522.334 83.0036 525.702 83.048 527.536 84.2026ZM464.178 89.3538C465.969 90.2863 467.12 92.5954 467.12 95.171C467.12 103.742 455.225 104.319 454.414 95.7483C453.903 90.1975 459.275 86.6894 464.178 89.3538ZM511.59 92.9063C511.76 93.8832 512.528 95.7927 513.295 97.1249L514.702 99.5229L512.698 103.964C506.857 117.064 502.721 132.206 500.504 148.592C499.907 152.989 499.737 157.163 499.737 168.842V183.585L498.33 184.517C497.051 185.405 496.88 185.405 495.9 184.739C494.322 183.674 488.396 176.702 485.07 171.95C473.26 155.342 465.244 132.784 464.263 113.511L464.008 108.404L466.267 107.338C470.36 105.429 473.047 101.699 473.43 97.4358C473.643 94.9934 472.705 95.3487 483.535 93.7944C493.768 92.329 506.772 90.9524 509.756 91.0412C511.121 91.0856 511.249 91.2188 511.59 92.9063ZM547.703 94.2385C563.606 97.2581 580.575 102.898 594.944 110.003L599.804 112.401L599.847 115.953C599.932 118.751 600.146 119.994 601.041 121.815L602.107 124.08L597.673 129.586C589.316 139.8 577.207 151.79 567.06 159.783C553.842 170.218 537.3 179.943 521.78 186.382L516.152 188.736L514.83 187.093C513.338 185.183 510.737 183.496 508.222 182.83L506.473 182.341L506.218 178.7C505.791 173.016 505.877 160.049 506.388 154.365C507.753 138.778 511.675 123.014 517.687 108.759L520.074 103.075H523.997C527.237 103.075 528.175 102.898 529.753 102.054C532.439 100.544 535.21 97.3914 536.063 94.7714L536.831 92.551L539.389 92.8619C540.796 92.9951 544.548 93.6168 547.703 94.2385ZM616.347 110.403C620.142 113.2 619.673 119.595 615.495 121.815C613.192 123.058 611.998 123.103 609.739 121.948C605.177 119.639 604.878 112.934 609.27 110.136C611.444 108.759 614.258 108.848 616.347 110.403ZM625.855 128.92C633.658 134.782 642.015 142.153 647.685 148.104L651.053 151.701L649.476 155.076C644.701 165.112 636.088 177.101 628.84 183.851L627.049 185.494L625.301 184.562C623.638 183.674 623.51 183.496 623.766 182.208C623.937 181.409 624.15 177.057 624.32 172.528L624.576 164.223L623.468 163.069C622.103 161.648 620.44 161.603 619.161 162.936C618.266 163.913 618.181 164.401 617.882 172.35C617.754 177.013 617.499 181.276 617.371 181.897C617.2 182.785 616.646 183.23 614.94 183.851C613.363 184.429 611.998 185.405 610.336 187.182C607.436 190.29 606.413 192.91 606.584 197.262L606.669 200.237L604.239 201.525C600.572 203.435 593.707 206.143 588.634 207.653C566.548 214.27 541.99 212.316 521.268 202.28L517.516 200.459L517.729 197.928C517.857 196.552 518.071 195.308 518.241 195.175C518.369 194.997 521.268 193.754 524.679 192.333C545.23 183.807 565.269 171.018 581.812 155.831C588.421 149.747 598.312 139.222 603.258 133.006L607.01 128.298L609.227 128.92C610.421 129.231 611.828 129.497 612.34 129.497C613.192 129.497 613.405 129.941 614.216 133.538C614.685 135.759 615.495 139.622 615.921 142.109C616.902 147.704 616.987 147.971 618.437 148.592C619.758 149.125 621.336 148.681 622.274 147.527C623.084 146.505 622.658 142.375 620.867 134.16L619.417 127.499L620.313 126.744C620.824 126.3 621.378 125.945 621.592 125.945C621.762 125.945 623.681 127.277 625.855 128.92ZM508.051 190.024C512.656 192.555 512.656 199.394 508.051 201.925C505.066 203.612 501.314 202.413 499.566 199.216C498.031 196.374 498.543 193.177 500.888 190.912C503.02 188.825 505.365 188.514 508.051 190.024ZM623.425 191.223C625.003 192.821 625.727 194.464 625.727 196.64C625.727 203.301 617.2 205.699 613.747 200.015C613.064 198.861 612.936 198.017 613.064 195.93C613.192 193.532 613.363 193.177 615.026 191.534C616.816 189.802 616.902 189.802 619.545 189.979C621.72 190.113 622.53 190.379 623.425 191.223Z" fill="#47790F"/>
<defs>
<filter id="filter0_i_302_5" x="24.08" y="272.36" width="1079.38" height="102.56" filterUnits="userSpaceOnUse" color-interpolation-filters="sRGB">
<feFlood flood-opacity="0" result="BackgroundImageFix"/>
<feBlend mode="normal" in="SourceGraphic" in2="BackgroundImageFix" result="shape"/>
<feColorMatrix in="SourceAlpha" type="matrix" values="0 0 0 0 0 0 0 0 0 0 0 0 0 0 0 0 0 0 127 0" result="hardAlpha"/>
<feOffset dy="4"/>
<feGaussianBlur stdDeviation="2"/>
<feComposite in2="hardAlpha" operator="arithmetic" k2="-1" k3="1"/>
<feColorMatrix type="matrix" values="0 0 0 0 0 0 0 0 0 0 0 0 0 0 0 0 0 0 0.25 0"/>
<feBlend mode="normal" in2="shape" result="effect1_innerShadow_302_5"/>
</filter>
</defs>
</svg>
