<svg width="1307" height="436" viewBox="0 0 1307 436" fill="none" xmlns="http://www.w3.org/2000/svg">
<path d="M48.144 400.792C66.576 400.792 78.352 389.784 78.352 375.32C78.352 361.112 69.52 355.224 58.768 350.488L44.944 344.344C38.16 341.4 29.072 337.56 29.072 326.808C29.072 317.208 36.88 310.936 48.912 310.936C58 310.936 65.296 314.776 70.8 320.28L75.152 315.288C69.264 309.016 60.048 304.024 48.912 304.024C32.912 304.024 21.264 313.624 21.264 327.448C21.264 341.272 31.888 347.16 40.208 350.872L54.032 357.016C63.248 361.112 70.672 364.568 70.672 375.96C70.672 386.584 62.096 393.88 48.272 393.88C37.648 393.88 27.92 389.016 21.264 381.464L16.4 386.712C23.952 395.032 34.704 400.792 48.144 400.792ZM100.378 399H153.37V392.472H107.93V352.92H144.922V346.264H107.93V312.344H151.962V305.688H100.378V399ZM176.313 399H183.481V343.192C183.481 333.848 182.969 325.144 182.585 316.056H183.097L193.593 334.872L231.609 399H239.673V305.688H232.249V360.984C232.249 370.2 232.889 379.544 233.401 388.632H232.761L222.393 369.944L184.249 305.688H176.313V399ZM293.949 400.792C312.381 400.792 324.157 389.784 324.157 375.32C324.157 361.112 315.325 355.224 304.573 350.488L290.749 344.344C283.965 341.4 274.877 337.56 274.877 326.808C274.877 317.208 282.685 310.936 294.717 310.936C303.805 310.936 311.101 314.776 316.605 320.28L320.957 315.288C315.069 309.016 305.853 304.024 294.717 304.024C278.717 304.024 267.069 313.624 267.069 327.448C267.069 341.272 277.693 347.16 286.013 350.872L299.837 357.016C309.053 361.112 316.477 364.568 316.477 375.96C316.477 386.584 307.901 393.88 294.077 393.88C283.453 393.88 273.725 389.016 267.069 381.464L262.205 386.712C269.757 395.032 280.509 400.792 293.949 400.792ZM378.951 400.792C401.607 400.792 417.735 381.72 417.735 352.152C417.735 322.584 401.607 304.024 378.951 304.024C356.295 304.024 340.295 322.456 340.295 352.152C340.295 381.72 356.295 400.792 378.951 400.792ZM378.951 393.88C360.519 393.88 348.231 377.496 348.231 352.152C348.231 326.808 360.519 310.936 378.951 310.936C397.383 310.936 409.799 326.808 409.799 352.152C409.799 377.496 397.383 393.88 378.951 393.88ZM441.618 399H449.17V356.888H468.754C487.442 356.888 499.858 348.056 499.858 330.648C499.858 312.6 487.442 305.688 468.754 305.688H441.618V399ZM449.17 350.616V312.216H467.09C483.09 312.216 492.05 317.08 492.05 330.648C492.05 344.088 483.09 350.616 467.09 350.616H449.17ZM493.202 399H501.906L474.002 352.024L467.09 354.84L493.202 399ZM522.053 399H575.045V392.472H529.605V352.92H566.597V346.264H529.605V312.344H573.637V305.688H522.053V399ZM622.564 400.792C640.996 400.792 652.772 389.784 652.772 375.32C652.772 361.112 643.94 355.224 633.188 350.488L619.364 344.344C612.58 341.4 603.492 337.56 603.492 326.808C603.492 317.208 611.3 310.936 623.332 310.936C632.42 310.936 639.716 314.776 645.22 320.28L649.572 315.288C643.684 309.016 634.468 304.024 623.332 304.024C607.332 304.024 595.684 313.624 595.684 327.448C595.684 341.272 606.308 347.16 614.628 350.872L628.452 357.016C637.668 361.112 645.092 364.568 645.092 375.96C645.092 386.584 636.516 393.88 622.692 393.88C612.068 393.88 602.34 389.016 595.684 381.464L590.82 386.712C598.372 395.032 609.124 400.792 622.564 400.792ZM705.608 399H713.16V359.576H730.312C751.048 359.576 763.848 350.744 763.848 332.056C763.848 312.6 750.792 305.688 729.8 305.688H705.608V399ZM713.16 353.176V312.216H728.136C746.824 312.216 755.912 316.824 755.912 332.056C755.912 346.904 747.08 353.176 728.648 353.176H713.16ZM818.031 400.792C834.671 400.792 850.031 391.96 850.031 362.648V305.688H842.607V362.136C842.607 386.456 831.087 393.88 818.031 393.88C804.975 393.88 793.839 386.456 793.839 362.136V305.688H786.159V362.648C786.159 391.96 801.263 400.792 818.031 400.792ZM815.087 299.16L834.543 283.16L829.935 277.656L811.759 295.32L815.087 299.16ZM879.353 399H906.873C927.993 399 941.817 389.784 941.817 371.864C941.817 358.936 933.753 351.384 921.849 349.336V348.696C931.193 345.88 936.057 338.072 936.057 328.472C936.057 312.6 923.769 305.688 905.081 305.688H879.353V399ZM886.905 346.392V311.96H903.289C919.929 311.96 928.505 316.696 928.505 329.24C928.505 339.992 921.081 346.392 902.521 346.392H886.905ZM886.905 392.728V352.664H905.209C923.641 352.664 934.265 358.808 934.265 371.864C934.265 386.328 923.257 392.728 905.209 392.728H886.905ZM964.038 399H1014.09V392.472H971.59V305.688H964.038V399ZM1033.47 399H1041.03V305.688H1033.47V399ZM1104.44 400.792C1116.48 400.792 1125.05 395.8 1132.35 387.48L1127.87 382.488C1121.21 389.912 1114.17 393.88 1104.83 393.88C1085.24 393.88 1072.96 377.496 1072.96 352.152C1072.96 326.808 1085.37 310.936 1105.21 310.936C1113.66 310.936 1120.32 314.776 1125.31 320.28L1129.66 315.288C1124.67 309.528 1116.22 304.024 1105.21 304.024C1081.53 304.024 1065.02 322.584 1065.02 352.28C1065.02 382.104 1081.28 400.792 1104.44 400.792ZM1182.86 400.792C1205.52 400.792 1221.65 381.72 1221.65 352.152C1221.65 322.584 1205.52 304.024 1182.86 304.024C1160.21 304.024 1144.21 322.456 1144.21 352.152C1144.21 381.72 1160.21 400.792 1182.86 400.792ZM1182.86 393.88C1164.43 393.88 1152.14 377.496 1152.14 352.152C1152.14 326.808 1164.43 310.936 1182.86 310.936C1201.29 310.936 1213.71 326.808 1213.71 352.152C1213.71 377.496 1201.29 393.88 1182.86 393.88ZM1270.1 400.792C1288.54 400.792 1300.31 389.784 1300.31 375.32C1300.31 361.112 1291.48 355.224 1280.73 350.488L1266.9 344.344C1260.12 341.4 1251.03 337.56 1251.03 326.808C1251.03 317.208 1258.84 310.936 1270.87 310.936C1279.96 310.936 1287.26 314.776 1292.76 320.28L1297.11 315.288C1291.22 309.016 1282.01 304.024 1270.87 304.024C1254.87 304.024 1243.22 313.624 1243.22 327.448C1243.22 341.272 1253.85 347.16 1262.17 350.872L1275.99 357.016C1285.21 361.112 1292.63 364.568 1292.63 375.96C1292.63 386.584 1284.06 393.88 1270.23 393.88C1259.61 393.88 1249.88 389.016 1243.22 381.464L1238.36 386.712C1245.91 395.032 1256.66 400.792 1270.1 400.792Z" fill="#47790F"/>
<path d="M828.245 0.0962639C814.004 1.38406 802.535 4.40372 791.321 9.82133L787.484 11.6864L785.864 10.221C783.562 8.13388 780.62 7.20134 777.124 7.46778C772.306 7.82303 768.639 10.443 766.422 15.0169C765.015 17.9922 764.759 21.5447 765.697 24.8752L766.209 26.5627L761.007 32.0247C756.317 36.9538 755.763 37.6643 755.763 39.0854C755.763 40.1955 756.061 40.8616 756.871 41.5277C758.96 43.2152 759.643 42.8599 765.1 37.1315L770.174 31.8027L772.476 32.9128C775.589 34.4227 780.193 34.4671 783.263 32.9572C785.438 31.9359 787.868 29.7599 789.062 27.8505L789.701 26.7847L793.965 28.2501C802.705 31.2698 812.853 35.8881 819.163 39.7071L822.233 41.5721L821.977 43.9257C821.806 45.4799 821.977 47.1674 822.446 48.766L823.128 51.2528L815.965 58.7575C812.043 62.8429 806.969 68.6158 804.709 71.5467L800.659 76.8755L797.333 76.7422C794.349 76.609 793.794 76.6978 791.321 77.9856C789.744 78.785 788.081 80.0283 787.399 80.9609C786.759 81.8046 785.949 82.8704 785.608 83.3144C785.054 84.0249 783.817 84.2026 776.441 84.6466C766.763 85.2239 760.41 85.9344 751.329 87.5775C745.189 88.6877 744.976 88.6877 744.549 87.8883C743.952 86.8226 741.693 84.469 740.669 83.8917C739.859 83.4477 739.902 83.1812 741.863 76.9643C743.611 71.3246 747.534 62.3545 751.286 55.2938C752.608 52.8514 752.267 51.3416 750.263 50.2758C747.704 48.8548 746.425 50.2314 741.949 59.3348C739.22 64.8857 736.15 72.8345 734.871 77.808L733.89 81.4494L731.503 81.9378C724.681 83.3588 720.289 89.3538 720.929 96.4144C721.398 101.477 724.34 105.695 728.689 107.605L730.479 108.36L730.735 114.843C731.758 141.443 743.867 169.241 762.499 187.759C765.868 191.134 765.953 191.223 765.484 192.599C764.802 194.642 765.271 199.571 766.379 201.792C768.298 205.699 772.263 208.675 776.313 209.252C779.255 209.696 781.814 209.119 784.414 207.476L786.759 206.01L789.275 207.342C798.271 212.094 810.977 215.957 822.489 217.467C827.989 218.178 841.718 218.178 847.218 217.467C858.73 215.957 871.734 211.961 881.114 206.987L883.032 205.966L884.482 207.254C887.68 210.007 893.222 210.717 897.145 208.808C901.878 206.543 904.606 202.546 904.905 197.529C905.033 196.019 904.862 193.887 904.564 192.866L904.095 190.956L908.486 186.294C924.731 169.108 934.537 148.726 938.076 124.613C939.014 118.307 939.142 101.61 938.332 95.5263C936.328 81.0053 932.235 67.5501 926.521 57.0257C924.816 53.8284 924.645 53.3399 925.2 52.7182C927.459 50.0982 928.27 44.2365 926.905 40.1067C926.01 37.3535 922.983 33.9342 920.254 32.5132C917.781 31.2254 913.858 30.9589 910.917 31.8471L909.296 32.3799L905.928 29.1827L902.517 25.9854L902.73 22.2996C902.901 19.5464 902.773 18.0366 902.261 16.3491C900.769 11.7752 896.122 7.95625 891.346 7.51218C887.978 7.20134 886.401 7.55659 883.459 9.37727L880.986 10.9759L876.253 8.88879C866.83 4.75897 858.175 2.22779 848.71 0.895585C844.191 0.273891 831.741 -0.214583 828.245 0.0962639ZM848.582 7.601C857.408 8.9332 866.02 11.4644 873.738 15.0169L877.703 16.7932L877.447 18.6583C877.276 19.6352 877.106 20.5234 877.063 20.6122C876.978 20.701 874.42 21.6335 871.35 22.7437C862.652 25.8078 853.571 30.1152 845.896 34.7335L844.191 35.7993L842.4 34.4227C837.923 31.0033 831.613 31.0033 827.093 34.4227L825.388 35.7104L823.512 34.6003C816.008 30.0708 802.407 23.8983 794.477 21.4115C790.852 20.2569 790.725 20.1681 790.725 18.9247C790.725 17.7257 791.023 17.4593 793.624 16.0827C802.577 11.42 816.392 7.68981 828.245 6.75727C832.593 6.44642 843.892 6.89049 848.582 7.601ZM780.918 14.8393C785.395 17.1484 785.523 24.0315 781.174 26.7403C779.17 27.9837 776.186 27.8061 774.352 26.2962C772.178 24.6088 771.41 22.7881 771.623 20.1681C771.751 18.9691 772.22 17.4149 772.689 16.7932C773.755 15.239 776.058 14.04 777.934 14.04C778.744 14.04 780.108 14.3952 780.918 14.8393ZM893.393 14.9281C897.486 17.5481 897.529 24.1203 893.478 26.6071C892.029 27.4952 889.215 27.6728 887.466 27.0067C884.951 25.9854 883.245 22.344 883.842 19.3244C884.652 14.9725 889.769 12.619 893.393 14.9281ZM880.73 29.7599C883.331 32.6908 886.145 34.0674 889.811 34.1118C892.668 34.1562 895.184 33.4901 897.017 32.1579C897.657 31.6694 898.339 31.3586 898.552 31.4474C898.765 31.5362 900.13 32.7796 901.579 34.2006L904.223 36.8206L903.199 39.041C902.432 40.8616 902.219 42.0162 902.261 44.8582C902.261 49.2545 903.498 52.0521 906.568 54.8497L908.572 56.7148L906.951 61.9104C903.285 73.5894 898.211 85.7124 892.327 96.7697C889.129 102.809 889.001 102.942 887.808 102.676C887.125 102.543 885.846 102.409 884.994 102.409C883.459 102.409 883.459 102.365 881.114 97.6578C873.695 82.5595 862.567 67.1948 850.927 55.8267L846.408 51.386L847.005 49.6986C847.303 48.766 847.601 46.5013 847.601 44.6806L847.644 41.3945L849.35 40.3287C852.633 38.3304 861.075 34.023 864.784 32.4244C868.408 30.8257 877.532 27.4508 878.257 27.4064C878.47 27.362 879.579 28.4277 880.73 29.7599ZM918.122 38.9077C923.665 42.4603 921.277 51.3416 914.754 51.3416C911.258 51.3416 908.401 48.322 908.401 44.6806C908.401 39.5738 913.944 36.2877 918.122 38.9077ZM838.051 39.4406C840.353 41.0837 841.121 42.5491 841.121 45.0803C841.121 49.0769 838.563 51.9189 834.896 51.9189C829.993 51.9189 826.923 46.9009 829.055 42.3715C830.717 38.7301 835.066 37.3535 838.051 39.4406ZM829.779 57.603C832.593 58.9352 836.601 58.8908 839.884 57.603L842.315 56.5816L846.322 60.4006C850.33 64.264 856.001 70.6585 860.435 76.4314C864.443 81.5826 871.776 93.3948 874.718 99.3897C877.362 104.763 877.447 105.074 876.765 105.829C876.04 106.539 875.827 106.495 872.075 104.674C857.877 97.791 843.551 92.5954 829.524 89.3093C824.024 88.0216 812.469 85.9788 810.678 85.9788C809.783 85.9788 809.357 85.6236 808.802 84.5134C808.419 83.7585 807.651 82.4707 807.14 81.7158L806.159 80.3836L810.039 75.2768C813.876 70.3033 826.496 56.6704 827.307 56.6704C827.52 56.6704 828.628 57.1145 829.779 57.603ZM921.704 61.7772C926.649 71.5023 930.146 83.1812 931.936 95.9704C932.789 102.01 932.661 117.863 931.723 124.169C930.87 129.631 928.525 139.667 927.374 142.731L926.649 144.596L923.366 141.487C917.483 135.848 908.273 127.899 903.071 123.991L897.998 120.172L898.126 116.486C898.211 113.2 898.083 112.578 897.017 110.403C896.335 109.07 895.525 107.561 895.226 107.028C894.715 106.228 894.971 105.518 898.126 99.6561C903.882 88.8653 909.126 76.3426 913.006 64.1307L914.924 58.047L916.672 57.8694C917.61 57.7806 918.719 57.7362 919.06 57.7362C919.401 57.7806 920.595 59.6013 921.704 61.7772ZM800.403 84.2026C801.981 85.1795 803.515 88.0216 803.515 89.8422C803.515 91.8849 801.767 94.9046 800.105 95.8371C797.077 97.4802 793.197 96.5032 791.492 93.6168C789.659 90.5083 790.554 86.2009 793.539 84.1582C795.201 83.0036 798.57 83.048 800.403 84.2026ZM737.045 89.3538C738.836 90.2863 739.987 92.5954 739.987 95.171C739.987 103.742 728.092 104.319 727.282 95.7483C726.77 90.1975 732.142 86.6894 737.045 89.3538ZM784.457 92.9063C784.628 93.8832 785.395 95.7927 786.162 97.1249L787.569 99.5229L785.566 103.964C779.724 117.064 775.589 132.206 773.372 148.592C772.775 152.989 772.604 157.163 772.604 168.842V183.585L771.197 184.517C769.918 185.405 769.747 185.405 768.767 184.739C767.189 183.674 761.263 176.702 757.937 171.95C746.127 155.342 738.111 132.784 737.131 113.511L736.875 108.404L739.135 107.338C743.228 105.429 745.914 101.699 746.297 97.4358C746.511 94.9934 745.573 95.3487 756.402 93.7944C766.635 92.329 779.639 90.9524 782.624 91.0412C783.988 91.0856 784.116 91.2188 784.457 92.9063ZM820.57 94.2385C836.473 97.2581 853.443 102.898 867.811 110.003L872.672 112.401L872.714 115.953C872.8 118.751 873.013 119.994 873.908 121.815L874.974 124.08L870.54 129.586C862.183 139.8 850.074 151.79 839.927 159.783C826.71 170.218 810.167 179.943 794.647 186.382L789.019 188.736L787.697 187.093C786.205 185.183 783.604 183.496 781.089 182.83L779.341 182.341L779.085 178.7C778.658 173.016 778.744 160.049 779.255 154.365C780.62 138.778 784.542 123.014 790.554 108.759L792.942 103.075H796.864C800.105 103.075 801.043 102.898 802.62 102.054C805.306 100.544 808.078 97.3914 808.93 94.7714L809.698 92.551L812.256 92.8619C813.663 92.9951 817.415 93.6168 820.57 94.2385ZM889.215 110.403C893.009 113.2 892.54 119.595 888.362 121.815C886.059 123.058 884.866 123.103 882.606 121.948C878.044 119.639 877.745 112.934 882.137 110.136C884.311 108.759 887.125 108.848 889.215 110.403ZM898.723 128.92C906.525 134.782 914.882 142.153 920.552 148.104L923.921 151.701L922.343 155.076C917.568 165.112 908.955 177.101 901.707 183.851L899.916 185.494L898.168 184.562C896.505 183.674 896.378 183.496 896.633 182.208C896.804 181.409 897.017 177.057 897.188 172.528L897.443 164.223L896.335 163.069C894.971 161.648 893.308 161.603 892.029 162.936C891.133 163.913 891.048 164.401 890.749 172.35C890.622 177.013 890.366 181.276 890.238 181.897C890.067 182.785 889.513 183.23 887.808 183.851C886.23 184.429 884.866 185.405 883.203 187.182C880.304 190.29 879.28 192.91 879.451 197.262L879.536 200.237L877.106 201.525C873.439 203.435 866.575 206.143 861.501 207.653C839.415 214.27 814.857 212.316 794.135 202.28L790.383 200.459L790.597 197.928C790.725 196.552 790.938 195.308 791.108 195.175C791.236 194.997 794.135 193.754 797.546 192.333C818.097 183.807 838.136 171.018 854.679 155.831C861.288 149.747 871.179 139.222 876.125 133.006L879.877 128.298L882.094 128.92C883.288 129.231 884.695 129.497 885.207 129.497C886.059 129.497 886.273 129.941 887.083 133.538C887.552 135.759 888.362 139.622 888.788 142.109C889.769 147.704 889.854 147.971 891.304 148.592C892.625 149.125 894.203 148.681 895.141 147.527C895.951 146.505 895.525 142.375 893.734 134.16L892.284 127.499L893.18 126.744C893.691 126.3 894.246 125.945 894.459 125.945C894.629 125.945 896.548 127.277 898.723 128.92ZM780.918 190.024C785.523 192.555 785.523 199.394 780.918 201.925C777.934 203.612 774.182 202.413 772.434 199.216C770.899 196.374 771.41 193.177 773.755 190.912C775.887 188.825 778.232 188.514 780.918 190.024ZM896.292 191.223C897.87 192.821 898.595 194.464 898.595 196.64C898.595 203.301 890.067 205.699 886.614 200.015C885.932 198.861 885.804 198.017 885.932 195.93C886.059 193.532 886.23 193.177 887.893 191.534C889.684 189.802 889.769 189.802 892.412 189.979C894.587 190.113 895.397 190.379 896.292 191.223Z" fill="#47790F"/>
<path d="M529.054 45.2197C525.494 45.6914 518.447 48.3193 514.887 50.4756C503.988 56.9443 496.795 70.5557 498.248 82.0107C500.501 100.204 515.54 112.805 534.867 112.805C554.048 112.805 569.088 100.339 571.486 82.415C573.084 70.3535 565.528 56.4727 553.685 49.7344C547.001 45.9609 536.683 44.0742 529.054 45.2197ZM545.765 56.6074C550.561 58.5615 556.301 63.6826 558.698 68.0625C565.165 79.8545 559.715 94.9482 546.71 101.013C542.859 102.899 541.915 103.034 534.867 103.034C527.819 103.034 526.875 102.899 523.024 101.013C510.019 94.9482 504.569 79.8545 511.036 68.0625C514.305 62.0654 521.862 56.54 528.837 54.8555C533.414 53.7773 540.897 54.5859 545.765 56.6074Z" fill="#47790F"/>
<path d="M441.577 60.2459C436.854 61.3914 430.46 64.9627 426.9 68.4666C413.386 81.8758 417.818 103.708 435.619 111.794C450.368 118.465 468.024 112.737 475.362 98.9237C478.268 93.533 478.995 85.4471 477.251 79.7196C474.708 71.5662 467.588 64.491 459.087 61.4588C454.728 59.909 445.791 59.3026 441.577 60.2459ZM456.835 70.7576C463.519 73.7225 468.024 80.326 468.024 87.199C468.024 102.36 448.552 110.783 436.2 100.945C424.938 91.9832 427.845 75.4744 441.577 70.3533C445.936 68.6688 452.548 68.8709 456.835 70.7576Z" fill="#47790F"/>
<path d="M612.319 60.8523C603.891 63.4802 597.715 68.6013 593.864 76.2156C592.12 79.7195 591.902 80.865 591.902 87.199C591.902 93.7351 592.12 94.6111 594.227 98.654C603.019 115.432 626.196 119.88 640.945 107.616C656.784 94.4763 652.716 70.6228 633.244 62.1326C626.995 59.4372 618.713 58.8982 612.319 60.8523ZM628.158 70.3533C632.59 71.9031 637.458 76.2829 639.274 80.3259C639.928 81.6736 640.437 84.6384 640.437 86.8621C640.509 101.012 624.598 109.705 611.374 102.697C600.258 96.8347 598.441 82.8191 607.596 74.2615C613.045 69.2078 620.602 67.7253 628.158 70.3533Z" fill="#47790F"/>
<path d="M436.345 122.238C417.891 126.686 404.013 140.229 400.163 157.479C399.363 160.849 399 166.104 399 172.775C399 182.681 399.073 183.018 400.816 184.567L402.56 186.252H534.867H667.174L668.918 184.567C670.662 183.018 670.734 182.681 670.734 172.775C670.734 166.104 670.371 160.849 669.572 157.479C664.777 135.984 644.723 120.891 621.038 120.891C612.682 120.891 606.652 122.238 598.805 125.742C593.719 128.033 591.466 129.583 585.945 134.704L579.333 140.971L577.589 139.286C574.61 136.321 567.127 131.739 560.66 128.909C544.603 121.901 525.131 121.901 509.074 128.909C502.608 131.739 495.124 136.321 492.145 139.286L490.402 140.971L483.79 134.771C478.341 129.718 475.943 128.033 470.93 125.742C467.515 124.192 462.647 122.508 460.031 121.901C453.565 120.554 442.739 120.688 436.345 122.238ZM458.215 131.335C467.297 133.559 474.272 137.804 479.721 144.542L483.136 148.652L480.012 154.178C476.597 160.107 473.909 167.52 473.182 172.978L472.746 176.481L440.85 176.684L408.954 176.818L409.317 167.924C409.68 160.512 410.044 158.153 411.57 154.312C416.002 143.194 426.246 134.367 438.307 131.402C443.538 130.122 452.911 130.055 458.215 131.335ZM631.064 131.402C637.53 132.952 643.561 136.187 648.647 140.769C656.93 148.383 660.563 157.143 660.563 169.878V176.818L628.812 176.684L596.988 176.481L596.552 172.978C595.826 167.52 593.138 160.107 589.723 154.178L586.598 148.652L589.65 144.946C599.241 133.087 615.661 127.696 631.064 131.402ZM549.762 135.041C558.844 137.669 564.438 140.836 571.559 147.507C576.863 152.358 578.752 154.717 581.222 159.299C584.273 165.094 586.453 171.495 586.453 174.932V176.818H534.867H483.281V174.932C483.281 171.495 485.461 165.094 488.513 159.299C490.983 154.717 492.872 152.358 498.176 147.507C506.459 139.825 514.088 135.917 525.495 133.693C530.871 132.683 544.022 133.356 549.762 135.041Z" fill="#47790F"/>
</svg>
